<svg width="24" height="24" viewBox="0 0 24 24" fill="none" xmlns="http://www.w3.org/2000/svg">
<path d="M12 2C9.34784 2 6.8043 3.05357 4.92893 4.92893C3.05357 6.8043 2 9.34784 2 12C2 14.6522 3.05357 17.1957 4.92893 19.0711C6.8043 20.9464 9.34784 22 12 22C14.0683 22 16.2404 21.3769 17.8106 20.3337C17.8947 20.2777 17.9671 20.2057 18.0234 20.1219C18.0797 20.038 18.119 19.9438 18.139 19.8447C18.1589 19.7457 18.1592 19.6437 18.1397 19.5445C18.1202 19.4453 18.0814 19.351 18.0255 19.2668C17.9695 19.1827 17.8976 19.1103 17.8137 19.054C17.7298 18.9977 17.6356 18.9584 17.5366 18.9384C17.4375 18.9185 17.3355 18.9182 17.2363 18.9377C17.1372 18.9572 17.0428 18.996 16.9587 19.0519C15.6538 19.9212 13.751 20.4615 12 20.4615C10.3265 20.4615 8.69051 19.9653 7.29902 19.0355C5.90753 18.1057 4.82299 16.7842 4.18256 15.2381C3.54212 13.6919 3.37456 11.9906 3.70105 10.3492C4.02754 8.70786 4.83342 7.20016 6.01679 6.01679C7.20016 4.83342 8.70786 4.02754 10.3492 3.70105C11.9906 3.37456 13.6919 3.54212 15.2381 4.18256C16.7842 4.82299 18.1057 5.90753 19.0355 7.29902C19.9653 8.69051 20.4615 10.3265 20.4615 12C20.4615 14.5433 19.4154 15.0769 18.5385 15.0769C17.6615 15.0769 16.6154 14.5433 16.6154 12V8.15385C16.6154 7.94983 16.5343 7.75418 16.3901 7.60992C16.2458 7.46566 16.0502 7.38462 15.8462 7.38462C15.6421 7.38462 15.4465 7.46566 15.3022 7.60992C15.158 7.75418 15.0769 7.94983 15.0769 8.15385V8.56346C14.3866 7.94455 13.5259 7.54788 12.6069 7.42513C11.688 7.30239 10.7533 7.45926 9.92478 7.8753C9.09623 8.29135 8.41219 8.94728 7.96177 9.75765C7.51136 10.568 7.31544 11.4953 7.39954 12.4186C7.48365 13.3419 7.84388 14.2185 8.4333 14.9341C9.02273 15.6498 9.81402 16.1713 10.7041 16.4308C11.5942 16.6903 12.5418 16.6757 13.4235 16.389C14.3051 16.1022 15.08 15.5565 15.6471 14.8231C16.224 15.9769 17.2192 16.6154 18.5385 16.6154C20.7058 16.6154 22 14.8904 22 12C21.9972 9.34869 20.9427 6.80678 19.068 4.93202C17.1932 3.05727 14.6513 2.0028 12 2ZM12 15.0769C11.3914 15.0769 10.7966 14.8965 10.2906 14.5584C9.78456 14.2203 9.39018 13.7397 9.15729 13.1775C8.92441 12.6153 8.86348 11.9966 8.9822 11.3997C9.10092 10.8029 9.39397 10.2546 9.82429 9.82429C10.2546 9.39397 10.8029 9.10092 11.3997 8.9822C11.9966 8.86348 12.6153 8.92441 13.1775 9.15729C13.7397 9.39018 14.2203 9.78456 14.5584 10.2906C14.8965 10.7966 15.0769 11.3914 15.0769 12C15.0769 12.8161 14.7527 13.5987 14.1757 14.1757C13.5987 14.7527 12.8161 15.0769 12 15.0769Z" fill="#1A1A1A"/>
</svg>
