<svg width="24" height="24" viewBox="0 0 24 24" fill="none" xmlns="http://www.w3.org/2000/svg">
<path d="M19.8577 11.5883L12.5242 2.25473C12.4618 2.17536 12.3822 2.11118 12.2914 2.06706C12.2006 2.02293 12.101 2 12 2C11.899 2 11.7994 2.02293 11.7086 2.06706C11.6178 2.11118 11.5382 2.17536 11.4758 2.25473L4.14229 11.5883C4.05011 11.7057 4 11.8507 4 12C4 12.1493 4.05011 12.2943 4.14229 12.4117L11.4758 21.7453C11.5382 21.8246 11.6178 21.8888 11.7086 21.9329C11.7994 21.9771 11.899 22 12 22C12.101 22 12.2006 21.9771 12.2914 21.9329C12.3822 21.8888 12.4618 21.8246 12.5242 21.7453L19.8577 12.4117C19.9499 12.2943 20 12.1493 20 12C20 11.8507 19.9499 11.7057 19.8577 11.5883ZM12.6667 4.59396L18.2852 11.7442L12.6667 14.2984V4.59396ZM11.3333 14.2984L5.71483 11.7442L11.3333 4.59396V14.2984ZM11.3333 15.7626V19.406L6.8807 13.7392L11.3333 15.7626ZM12.6667 15.7626L17.1193 13.7384L12.6667 19.4052V15.7626Z" fill="#1A1A1A"/>
</svg>
