<svg width="24" height="24" viewBox="0 0 24 24" fill="none" xmlns="http://www.w3.org/2000/svg">
<path d="M9.9993 12.6665C9.9993 12.8643 9.94065 13.0576 9.83078 13.222C9.7209 13.3865 9.56474 13.5146 9.38202 13.5903C9.19931 13.666 8.99826 13.6858 8.80429 13.6472C8.61032 13.6086 8.43215 13.5134 8.29231 13.3735C8.15247 13.2337 8.05723 13.0555 8.01865 12.8616C7.98007 12.6676 7.99987 12.4665 8.07555 12.2838C8.15124 12.1011 8.2794 11.945 8.44384 11.8351C8.60827 11.7252 8.8016 11.6666 8.99937 11.6666C9.26456 11.6666 9.5189 11.7719 9.70642 11.9594C9.89395 12.147 9.9993 12.4013 9.9993 12.6665ZM14.9989 11.6666C14.8012 11.6666 14.6078 11.7252 14.4434 11.8351C14.279 11.945 14.1508 12.1011 14.0751 12.2838C13.9994 12.4665 13.9796 12.6676 14.0182 12.8616C14.0568 13.0555 14.152 13.2337 14.2919 13.3735C14.4317 13.5134 14.6099 13.6086 14.8039 13.6472C14.9978 13.6858 15.1989 13.666 15.3816 13.5903C15.5643 13.5146 15.7205 13.3865 15.8304 13.222C15.9402 13.0576 15.9989 12.8643 15.9989 12.6665C15.9989 12.4013 15.8935 12.147 15.706 11.9594C15.5185 11.7719 15.2641 11.6666 14.9989 11.6666ZM21.2027 17.0745L15.6197 19.5502C15.4519 19.6248 15.2705 19.6643 15.0868 19.6663C14.9031 19.6682 14.7209 19.6326 14.5515 19.5616C14.3821 19.4906 14.2289 19.3857 14.1016 19.2533C13.9742 19.1209 13.8752 18.9639 13.8107 18.7919L13.1349 16.9587C12.7616 16.9837 12.383 16.9965 11.9992 16.997C11.6153 16.9976 11.2367 16.9848 10.8634 16.9587L10.1876 18.7919C10.123 18.9638 10.024 19.1208 9.89658 19.2531C9.76917 19.3854 9.61606 19.4903 9.44666 19.5613C9.27727 19.6323 9.09514 19.6679 8.91148 19.666C8.72781 19.6641 8.54647 19.6247 8.37858 19.5502L2.79564 17.0745C2.50748 16.9485 2.27342 16.7243 2.13516 16.4418C1.9969 16.1594 1.96342 15.837 2.04069 15.5321L4.49969 5.83364C4.56458 5.58142 4.70162 5.35359 4.89402 5.17806C5.08642 5.00253 5.32584 4.88692 5.58294 4.84538L8.58773 4.35125C8.91898 4.29797 9.2582 4.3698 9.53943 4.55276C9.82065 4.73573 10.0238 5.01675 10.1093 5.34118L10.3809 6.4111C10.9103 6.35944 11.4497 6.33361 11.9992 6.33361C12.5486 6.33361 13.0874 6.35944 13.6157 6.4111L13.8874 5.34118C13.9727 5.01665 14.1758 4.73552 14.4571 4.55252C14.7383 4.36953 15.0776 4.29778 15.4089 4.35125L18.4154 4.84538C18.6725 4.88692 18.9119 5.00253 19.1043 5.17806C19.2967 5.35359 19.4337 5.58142 19.4986 5.83364L21.9593 15.5313C22.0367 15.8365 22.0031 16.1592 21.8645 16.4419C21.7259 16.7246 21.4913 16.9488 21.2027 17.0745ZM20.6652 15.8563L18.2045 6.16695C18.2045 6.16695 18.2045 6.16695 18.1979 6.16695L15.1931 5.66699C15.1909 5.66574 15.1885 5.66509 15.186 5.66509C15.1835 5.66509 15.1811 5.66574 15.1789 5.66699L14.9431 6.59526C15.3597 6.67358 15.7764 6.76691 16.1789 6.88024C16.3375 6.92068 16.4758 7.01812 16.5672 7.15396C16.6586 7.2898 16.6969 7.45454 16.6746 7.61677C16.6524 7.779 16.5712 7.92737 16.4466 8.03358C16.3219 8.13979 16.1626 8.19641 15.9989 8.19264C15.938 8.19247 15.8775 8.18406 15.8189 8.16764C14.5739 7.82982 13.2891 7.66137 11.9992 7.66685C10.7092 7.6611 9.42442 7.82927 8.17943 8.16681C8.09438 8.1931 8.00492 8.2021 7.91635 8.19326C7.82777 8.18442 7.74185 8.15793 7.66368 8.11535C7.5855 8.07277 7.51665 8.01496 7.46117 7.94534C7.4057 7.87572 7.36473 7.79569 7.34069 7.70998C7.31665 7.62427 7.31001 7.53461 7.32118 7.4463C7.33235 7.35798 7.36109 7.2728 7.40572 7.19577C7.45034 7.11874 7.50994 7.05143 7.581 6.99781C7.65206 6.94419 7.73314 6.90535 7.81945 6.88357C8.22109 6.77024 8.63439 6.67692 9.05436 6.59859L8.81855 5.66699C8.81855 5.66699 8.81855 5.66699 8.80855 5.66699L5.80043 6.16112C5.79797 6.16045 5.79538 6.16045 5.79293 6.16112L3.3331 15.8604L8.91604 18.3328C8.91885 18.3343 8.922 18.3351 8.92521 18.3351C8.92841 18.3351 8.93156 18.3343 8.93437 18.3328L9.49933 16.8095C8.93328 16.7229 8.37289 16.6027 7.82112 16.4496C7.65677 16.397 7.51919 16.2829 7.43729 16.131C7.35539 15.9792 7.33555 15.8015 7.38195 15.6353C7.42835 15.4691 7.53737 15.3274 7.68609 15.2399C7.83481 15.1525 8.01165 15.1261 8.17943 15.1663C9.42434 15.5043 10.7092 15.6724 11.9992 15.6663C13.2891 15.6724 14.574 15.5043 15.8189 15.1663C15.9892 15.1186 16.1714 15.1404 16.3256 15.2271C16.4797 15.3137 16.5932 15.4581 16.6409 15.6284C16.6886 15.7986 16.6668 15.9809 16.5801 16.1351C16.4935 16.2892 16.3491 16.4027 16.1789 16.4504C15.6265 16.6034 15.0656 16.7233 14.499 16.8095L15.0614 18.3328C15.0641 18.3342 15.0671 18.335 15.0702 18.335C15.0732 18.335 15.0763 18.3342 15.0789 18.3328L20.6652 15.8563Z" fill="#1A1A1A"/>
</svg>
