<svg width="24" height="24" viewBox="0 0 24 24" fill="none" xmlns="http://www.w3.org/2000/svg">
<path d="M12 21.1752L10.55 19.8752C8.86667 18.3585 7.475 17.0502 6.375 15.9502C5.275 14.8502 4.4 13.8627 3.75 12.9877C3.1 12.1127 2.64583 11.3085 2.3875 10.5752C2.12917 9.84186 2 9.09186 2 8.3252C2 6.75853 2.525 5.4502 3.575 4.4002C4.625 3.3502 5.93333 2.8252 7.5 2.8252C8.36667 2.8252 9.19167 3.00853 9.975 3.3752C10.7583 3.74186 11.4333 4.25853 12 4.9252C12.5667 4.25853 13.2417 3.74186 14.025 3.3752C14.8083 3.00853 15.6333 2.8252 16.5 2.8252C18.0667 2.8252 19.375 3.3502 20.425 4.4002C21.475 5.4502 22 6.75853 22 8.3252C22 9.09186 21.8708 9.84186 21.6125 10.5752C21.3542 11.3085 20.9 12.1127 20.25 12.9877C19.6 13.8627 18.725 14.8502 17.625 15.9502C16.525 17.0502 15.1333 18.3585 13.45 19.8752L12 21.1752Z" fill="#1A1A1A"/>
</svg>
