<svg width="24" height="24" viewBox="0 0 24 24" fill="none" xmlns="http://www.w3.org/2000/svg">
<path d="M12 21.1752L10.55 19.8752C8.86667 18.3585 7.475 17.0502 6.375 15.9502C5.275 14.8502 4.4 13.8627 3.75 12.9877C3.1 12.1127 2.64583 11.3085 2.3875 10.5752C2.12917 9.84186 2 9.09186 2 8.3252C2 6.75853 2.525 5.4502 3.575 4.4002C4.625 3.3502 5.93333 2.8252 7.5 2.8252C8.36667 2.8252 9.19167 3.00853 9.975 3.3752C10.7583 3.74186 11.4333 4.25853 12 4.9252C12.5667 4.25853 13.2417 3.74186 14.025 3.3752C14.8083 3.00853 15.6333 2.8252 16.5 2.8252C18.0667 2.8252 19.375 3.3502 20.425 4.4002C21.475 5.4502 22 6.75853 22 8.3252C22 9.09186 21.8708 9.84186 21.6125 10.5752C21.3542 11.3085 20.9 12.1127 20.25 12.9877C19.6 13.8627 18.725 14.8502 17.625 15.9502C16.525 17.0502 15.1333 18.3585 13.45 19.8752L12 21.1752ZM12 18.4752C13.6 17.0419 14.9167 15.8127 15.95 14.7877C16.9833 13.7627 17.8 12.871 18.4 12.1127C19 11.3544 19.4167 10.6794 19.65 10.0877C19.8833 9.49603 20 8.90853 20 8.3252C20 7.3252 19.6667 6.49186 19 5.8252C18.3333 5.15853 17.5 4.8252 16.5 4.8252C15.7167 4.8252 14.9917 5.04603 14.325 5.4877C13.6583 5.92936 13.2 6.49186 12.95 7.1752H11.05C10.8 6.49186 10.3417 5.92936 9.675 5.4877C9.00833 5.04603 8.28333 4.8252 7.5 4.8252C6.5 4.8252 5.66667 5.15853 5 5.8252C4.33333 6.49186 4 7.3252 4 8.3252C4 8.90853 4.11667 9.49603 4.35 10.0877C4.58333 10.6794 5 11.3544 5.6 12.1127C6.2 12.871 7.01667 13.7627 8.05 14.7877C9.08333 15.8127 10.4 17.0419 12 18.4752Z" fill="#1A1A1A"/>
</svg>
