<svg width="24" height="24" viewBox="0 0 24 24" fill="none" xmlns="http://www.w3.org/2000/svg">
<path d="M12.025 21.4621C9.79167 19.2121 8.0125 17.3954 6.6875 16.0121C5.3625 14.6288 4.35417 13.4788 3.6625 12.5621C2.97083 11.6454 2.52083 10.8621 2.3125 10.2121C2.10417 9.56211 2 8.83711 2 8.03711C2 6.50378 2.53333 5.20378 3.6 4.13711C4.66667 3.07044 5.96667 2.53711 7.5 2.53711C8.25 2.53711 8.975 2.67461 9.675 2.94961C10.375 3.22461 11 3.62044 11.55 4.13711L10 9.53711H13L12.15 17.9121L15 8.53711H12L13.775 3.23711C14.1917 3.00378 14.6292 2.82878 15.0875 2.71211C15.5458 2.59544 16.0167 2.53711 16.5 2.53711C18.0333 2.53711 19.3333 3.07044 20.4 4.13711C21.4667 5.20378 22 6.50378 22 8.03711C22 8.83711 21.8917 9.57044 21.675 10.2371C21.4583 10.9038 21 11.6996 20.3 12.6246C19.6 13.5496 18.5917 14.6996 17.275 16.0746C15.9583 17.4496 14.2083 19.2454 12.025 21.4621Z" fill="#1A1A1A"/>
</svg>
