<svg width="24" height="24" viewBox="0 0 24 24" fill="none" xmlns="http://www.w3.org/2000/svg">
<path d="M12.025 21.4621C9.79167 19.2121 8.0125 17.3954 6.6875 16.0121C5.3625 14.6288 4.35417 13.4788 3.6625 12.5621C2.97083 11.6454 2.52083 10.8621 2.3125 10.2121C2.10417 9.56211 2 8.83711 2 8.03711C2 6.50378 2.53333 5.20378 3.6 4.13711C4.66667 3.07044 5.96667 2.53711 7.5 2.53711C8.25 2.53711 8.975 2.67461 9.675 2.94961C10.375 3.22461 11 3.62044 11.55 4.13711L10 9.53711H13L12.15 17.9121L15 8.53711H12L13.775 3.23711C14.1917 3.00378 14.6292 2.82878 15.0875 2.71211C15.5458 2.59544 16.0167 2.53711 16.5 2.53711C18.0333 2.53711 19.3333 3.07044 20.4 4.13711C21.4667 5.20378 22 6.50378 22 8.03711C22 8.83711 21.8917 9.57044 21.675 10.2371C21.4583 10.9038 21 11.6996 20.3 12.6246C19.6 13.5496 18.5917 14.6996 17.275 16.0746C15.9583 17.4496 14.2083 19.2454 12.025 21.4621ZM10.25 16.8121L10.775 11.5371H7.35L9.225 4.96211C8.95833 4.82878 8.67917 4.72461 8.3875 4.64961C8.09583 4.57461 7.8 4.53711 7.5 4.53711C6.53333 4.53711 5.70833 4.87878 5.025 5.56211C4.34167 6.24544 4 7.07044 4 8.03711C4 8.55378 4.09583 9.07044 4.2875 9.58711C4.47917 10.1038 4.8125 10.6913 5.2875 11.3496C5.7625 12.0079 6.40417 12.7746 7.2125 13.6496C8.02083 14.5246 9.03333 15.5788 10.25 16.8121ZM14.95 15.6121C16.8 13.7288 18.1042 12.2288 18.8625 11.1121C19.6208 9.99544 20 8.97044 20 8.03711C20 7.07044 19.6583 6.24544 18.975 5.56211C18.2917 4.87878 17.4667 4.53711 16.5 4.53711C16.3167 4.53711 16.1333 4.54961 15.95 4.57461C15.7667 4.59961 15.5833 4.64544 15.4 4.71211L14.8 6.53711H17.7L14.95 15.6121Z" fill="#1A1A1A"/>
</svg>
