<svg width="24" height="24" viewBox="0 0 24 24" fill="none" xmlns="http://www.w3.org/2000/svg">
<path d="M8.75 20C8.2 20 7.72917 19.8042 7.3375 19.4125C6.94583 19.0208 6.75 18.55 6.75 18V15H9.75V12.75C9.16667 12.7167 8.6125 12.5875 8.0875 12.3625C7.5625 12.1375 7.08333 11.8 6.65 11.35V10.25H5.5L2.25 7C2.85 6.23333 3.59167 5.69167 4.475 5.375C5.35833 5.05833 6.25 4.9 7.15 4.9C7.6 4.9 8.0375 4.93333 8.4625 5C8.8875 5.06667 9.31667 5.19167 9.75 5.375V4H21.75V17C21.75 17.8333 21.4583 18.5417 20.875 19.125C20.2917 19.7083 19.5833 20 18.75 20H8.75ZM11.75 15H17.75V17C17.75 17.2833 17.8458 17.5208 18.0375 17.7125C18.2292 17.9042 18.4667 18 18.75 18C19.0333 18 19.2708 17.9042 19.4625 17.7125C19.6542 17.5208 19.75 17.2833 19.75 17V6H11.75V6.6L17.75 12.6V14H16.35L13.5 11.15L13.3 11.35C13.0667 11.5833 12.8208 11.7917 12.5625 11.975C12.3042 12.1583 12.0333 12.3 11.75 12.4V15ZM6.35 8.25H8.65V10.4C8.85 10.5333 9.05833 10.625 9.275 10.675C9.49167 10.725 9.71667 10.75 9.95 10.75C10.3333 10.75 10.6792 10.6917 10.9875 10.575C11.2958 10.4583 11.6 10.25 11.9 9.95L12.1 9.75L10.7 8.35C10.2167 7.86667 9.675 7.50417 9.075 7.2625C8.475 7.02083 7.83333 6.9 7.15 6.9C6.81667 6.9 6.5 6.925 6.2 6.975C5.9 7.025 5.6 7.1 5.3 7.2L6.35 8.25ZM15.75 17H8.75V18H15.9C15.85 17.85 15.8125 17.6917 15.7875 17.525C15.7625 17.3583 15.75 17.1833 15.75 17Z" fill="#1A1A1A"/>
</svg>
