<svg width="24" height="24" viewBox="0 0 24 24" fill="none" xmlns="http://www.w3.org/2000/svg">
<path d="M6.5 2H17.5V15L10.5 22L9.25 20.75C9.13333 20.6333 9.0375 20.475 8.9625 20.275C8.8875 20.075 8.85 19.8833 8.85 19.7V19.35L9.95 15H3.5C2.96667 15 2.5 14.8 2.1 14.4C1.7 14 1.5 13.5333 1.5 13V11C1.5 10.8833 1.51667 10.7583 1.55 10.625C1.58333 10.4917 1.61667 10.3667 1.65 10.25L4.65 3.2C4.8 2.86667 5.05 2.58333 5.4 2.35C5.75 2.11667 6.11667 2 6.5 2ZM15.5 4H6.5L3.5 11V13H12.5L11.15 18.5L15.5 14.15V4ZM17.5 15V13H20.5V4H17.5V2H22.5V15H17.5Z" fill="#1A1A1A"/>
</svg>
