<svg width="24" height="24" viewBox="0 0 24 24" fill="none" xmlns="http://www.w3.org/2000/svg">
<path d="M17.5 22H6.5V9L13.5 2L14.75 3.25C14.8667 3.36667 14.9625 3.525 15.0375 3.725C15.1125 3.925 15.15 4.11667 15.15 4.3V4.65L14.05 9H20.5C21.0333 9 21.5 9.2 21.9 9.6C22.3 10 22.5 10.4667 22.5 11V13C22.5 13.1167 22.4833 13.2417 22.45 13.375C22.4167 13.5083 22.3833 13.6333 22.35 13.75L19.35 20.8C19.2 21.1333 18.95 21.4167 18.6 21.65C18.25 21.8833 17.8833 22 17.5 22ZM8.5 20H17.5L20.5 13V11H11.5L12.85 5.5L8.5 9.85V20ZM6.5 9V11H3.5V20H6.5V22H1.5V9H6.5Z" fill="#1A1A1A"/>
</svg>
