<svg width="24" height="24" viewBox="0 0 24 24" fill="none" xmlns="http://www.w3.org/2000/svg">
<path d="M17.5 22H7.5V9L14.5 2L15.75 3.25C15.8667 3.36667 15.9625 3.525 16.0375 3.725C16.1125 3.925 16.15 4.11667 16.15 4.3V4.65L15.05 9H20.5C21.0333 9 21.5 9.2 21.9 9.6C22.3 10 22.5 10.4667 22.5 11V13C22.5 13.1167 22.4875 13.2417 22.4625 13.375C22.4375 13.5083 22.4 13.6333 22.35 13.75L19.35 20.8C19.2 21.1333 18.95 21.4167 18.6 21.65C18.25 21.8833 17.8833 22 17.5 22ZM5.5 9V22H1.5V9H5.5Z" fill="#1A1A1A"/>
</svg>
